<svg xmlns="http://www.w3.org/2000/svg" width="80" height="80" fill="none" viewBox="0 0 80 80">
  <path fill="#29313C" d="M68.52 20.21v-1.12h1.92v-8.51h-7.4v8.51h1.13v1.12h-6.91v-1.12h4.67v-8.51H51.77v8.51h1.65v1.12h-1.65v8.5h-1.12v-.83H36.4v-1.11h14.25v-16.2H30.4v16.18h2.74v1.12H26.8v-3.04h2.47V10.58H9.51v16.17H23.8v1.12h-.84v.82h-1.11v-.82H9.52V38.3h12.35v-5.77h1.11v6.89H9.52v19.77h20.83V36.4h-3.27v-1.12h23.57v-2.74h1.12v2.74h1.12v1.12H31.47v22.78h26.91v2.51H48.22v6.83h17.84V61.7h-3.84v-2.51h8.23V36.4H58.64v-1.12h11.8V24.86h2.5V61.7H66.6v7.37H47.66V61.7H7V8.07h65.94v12.69h-2.5v-.55h-1.92Z"/>
  <path fill="#29313C" fill-rule="evenodd" d="M70.55 36.4h-3.3v9.34h.14v.13h3.02v-.13h.14V36.4Zm-.14 9.34h-3.02v-9.2h3.02v9.2Zm0 3.15h-3.02v.14h-.14v4.43h3.3v-4.43h-.14v-.14Zm0 .14h-3.02v4.3h3.02v-4.3Zm-1.24-.97c0-.14.05-.25.13-.34.1-.1.2-.14.35-.14.13 0 .25.06.34.14.09.09.13.2.13.34s-.05.25-.13.34c-.1.1-.2.14-.34.14a.51.51 0 0 1-.35-.14.51.51 0 0 1-.13-.34Zm.13 0c0-.09.05-.18.1-.24.06-.07.15-.1.25-.1.09 0 .18.04.23.1.07.06.1.15.1.24 0 .1-.04.18-.1.24a.31.31 0 0 1-.23.1.36.36 0 0 1-.24-.1.31.31 0 0 1-.1-.24Zm-1.63 0c0-.14.06-.25.14-.34.1-.1.2-.14.34-.14s.25.06.34.14c.1.09.14.2.14.34s-.06.25-.14.34c-.09.1-.2.14-.34.14a.51.51 0 0 1-.34-.14.51.51 0 0 1-.14-.34Zm.14 0c0-.09.05-.18.1-.24.06-.07.15-.1.24-.1.1 0 .19.04.24.1.07.06.1.15.1.24 0 .1-.04.18-.1.24a.31.31 0 0 1-.24.1.35.35 0 0 1-.24-.1.31.31 0 0 1-.1-.24Zm1.36-1.37c0-.13.05-.25.13-.34.1-.09.2-.14.35-.14.13 0 .25.06.34.14.09.1.13.2.13.34s-.05.25-.13.35c-.1.09-.2.13-.34.13a.51.51 0 0 1-.35-.13.51.51 0 0 1-.13-.35Zm.13 0c0-.09.05-.18.1-.24.06-.06.15-.1.25-.1.09 0 .18.05.23.1.07.06.1.15.1.24 0 .1-.04.19-.1.24a.31.31 0 0 1-.23.1.36.36 0 0 1-.24-.1.31.31 0 0 1-.1-.24Zm-1.63 0c0-.13.06-.25.14-.34.1-.09.2-.14.34-.14s.25.06.34.14c.1.1.14.2.14.34s-.06.25-.14.35c-.09.09-.2.13-.34.13a.51.51 0 0 1-.34-.13.51.51 0 0 1-.14-.35Zm.14 0c0-.09.05-.18.1-.24.06-.06.15-.1.24-.1.1 0 .19.05.24.1.07.06.1.15.1.24 0 .1-.04.19-.1.24a.31.31 0 0 1-.24.1.35.35 0 0 1-.24-.1.31.31 0 0 1-.1-.24ZM61.94 14.12h-2.57c-.27 0-.53-.11-.72-.3a1.03 1.03 0 0 1 0-1.44 1 1 0 0 1 .72-.29h2.57v2.03Zm-3.2-1.65a.9.9 0 0 0 .64 1.54h2.45v-1.8h-2.45a.9.9 0 0 0-.63.26ZM60.82 14h.11v-1.8h-.11V14ZM61.94 14.9H61c-.47 0-.89.18-1.2.5a1.61 1.61 0 0 0 0 2.32c.31.3.73.48 1.2.48h.94v-3.3ZM61 18.06c-.43 0-.82-.17-1.1-.44a1.48 1.48 0 0 1-.46-1.09c0-.42.17-.8.46-1.07.28-.27.67-.44 1.1-.44h.81v3.04h-.8Zm.22-.22h-.26c-.36 0-.68-.13-.92-.36a1.24 1.24 0 0 1-.37-.88v-.09c0-.34.15-.65.37-.88.23-.23.55-.36.92-.36h.26v2.57Zm-1.41-1.33c0-.3.13-.58.34-.79.2-.2.49-.33.8-.33h.13v2.33h-.12c-.31 0-.6-.13-.81-.33-.22-.2-.34-.48-.34-.79v-.09Zm1.06.06c0 .11-.08.2-.2.2a.2.2 0 0 1-.19-.2c0-.1.09-.19.2-.19.1 0 .19.07.19.19Zm-.2.1c-.05 0-.1-.04-.1-.1 0-.07.06-.1.1-.1.06 0 .12.03.12.1s-.05.1-.11.1ZM14.74 38.31v-2.56c0-.27.1-.54.3-.72a1.03 1.03 0 0 1 1.44 0 1 1 0 0 1 .28.72v2.56h-2.02Zm1.65-3.19a.9.9 0 0 0-1.54.64v1.43h1.8v-1.43a.9.9 0 0 0-.26-.64Zm.26 2.18h-1.8v.91h1.8v-.91ZM21 38.31v-.93c0-.47-.18-.89-.49-1.2a1.6 1.6 0 0 0-2.32 0c-.3.31-.48.73-.48 1.2v.93H21Zm-3.15-.93c0-.43.17-.82.44-1.1.27-.3.65-.46 1.08-.46.42 0 .8.17 1.07.45.28.29.45.68.45 1.1v.82h-3.04v-.81Zm.21.22v-.27c0-.35.14-.67.37-.9.22-.24.53-.38.87-.38h.1c.34 0 .64.14.87.37.23.23.37.55.37.91v.27h-2.58Zm1.33-1.42a1.14 1.14 0 0 1 1.12 1.15v.13H18.2v-.13c0-.3.12-.6.33-.8.2-.22.48-.35.78-.35h.1Zm-.05 1.07c-.12 0-.2-.09-.2-.2 0-.1.1-.2.2-.2s.18.1.18.2c0 .12-.07.2-.18.2Zm-.1-.2c0-.05.03-.1.1-.1.06 0 .1.06.1.1 0 .06-.04.11-.1.11-.07 0-.1-.04-.1-.1ZM12.81 27.88h-3.3v7.09h3.3v-7.09Zm-.1.1v6.9H9.6v-6.9h3.1ZM9.87 33.4v-3.94c0-.36.14-.64.35-.85.24-.21.56-.33.93-.33.36 0 .7.12.92.33.22.2.35.5.35.85v3.94c0 .36-.13.64-.35.85-.24.21-.56.33-.92.33-.37 0-.7-.12-.93-.33-.21-.21-.35-.5-.35-.85Zm2.47 0a1 1 0 0 1-.33.78c-.21.2-.52.3-.86.3a1.3 1.3 0 0 1-.87-.3c-.2-.2-.33-.45-.33-.78v-3.94a1 1 0 0 1 .33-.78c.22-.2.53-.3.87-.3.34 0 .65.1.86.3.2.2.33.45.33.78v3.94Zm-1.2.45c-.11 0-.2-.08-.2-.19 0-.1.1-.2.2-.2s.19.1.19.2c0 .11-.08.2-.19.2Zm-.1-.19c0-.06.04-.1.1-.1.07 0 .1.05.1.1s-.03.11-.1.11-.1-.05-.1-.1Z" clip-rule="evenodd"/>
  <path fill="#fff" d="M53.48 59.24h4.83v2.4h-4.83v-2.4Z"/>
  <path fill="#171924" fill-rule="evenodd" d="M53.41 61.7v-2.51h4.95v2.5H53.4Zm.12-.12h4.71V59.3h-4.71v2.28Z" clip-rule="evenodd"/>
  <path fill="#171924" d="M53.42 59.94h4.94v.14h-4.94z"/>
  <path fill="#fff" d="M33.73 59.24h8.12v2.4h-8.12v-2.4Z"/>
  <path fill="#171924" fill-rule="evenodd" d="M33.66 61.7v-2.51h8.23v2.5h-8.23Zm.11-.12h8.01V59.3h-8v2.28Z" clip-rule="evenodd"/>
  <path fill="#171924" d="M33.67 59.94h8.24v.14h-8.24z"/>
  <path fill="#fff" d="M14.23 59.24h8.13v2.4h-8.13v-2.4Z"/>
  <path fill="#171924" fill-rule="evenodd" d="M14.18 61.7v-2.51h8.23v2.5h-8.23Zm.11-.12h8.01V59.3h-8v2.28Z" clip-rule="evenodd"/>
  <path fill="#171924" d="M14.18 59.94h8.24v.14h-8.24z"/>
  <path fill="#fff" d="M14.23 8.13h8.13v2.39h-8.13v-2.4Z"/>
  <path fill="#171924" fill-rule="evenodd" d="M14.18 10.58V8.07h8.23v2.5h-8.23Zm.11-.12h8.01V8.18h-8v2.28Z" clip-rule="evenodd"/>
  <path fill="#171924" d="M14.18 9.69h8.24v.14h-8.24z"/>
  <path fill="#fff" d="M33.73 8.13h8.12v2.39h-8.12v-2.4Z"/>
  <path fill="#171924" fill-rule="evenodd" d="M33.66 10.58V8.07h8.23v2.5h-8.23Zm.11-.12h8.01V8.18h-8v2.28Z" clip-rule="evenodd"/>
  <path fill="#171924" d="M33.67 9.69h8.24v.14h-8.24z"/>
  <path fill="#fff" d="M54.3 8.13h5.92v2.39H54.3v-2.4Z"/>
  <path fill="#171924" fill-rule="evenodd" d="M54.24 10.58V8.07h6.04v2.5h-6.04Zm.12-.12h5.8V8.18h-5.8v2.28Z" clip-rule="evenodd"/>
  <path fill="#171924" d="M54.24 9.69h6.04v.14h-6.04z"/>
  <path fill="#0B1739" fill-opacity=".2" d="M15.27 66.42c.95 1.45.4 3.33-1.22 4.17-1.63.85-3.73.35-4.67-1.1-.95-1.46-.4-3.33 1.23-4.17 1.62-.85 3.72-.36 4.66 1.1Z" opacity=".2"/>
  <path fill="red" fill-rule="evenodd" d="m12.7 68.61-2.76.45 1.82-1.88 2.75-.45-1.81 1.88Zm-.73-1.1-1.31 1.2 1.84-.42-.53-.78Z" clip-rule="evenodd"/>
  <path fill="#0B1739" fill-rule="evenodd" d="m12.7 68.61-2.76.45 1.82-1.88 2.75-.45-1.81 1.88Zm-.73-1.1-1.31 1.2 1.84-.42-.53-.78Z" clip-rule="evenodd"/>
  <path fill="red" fill-rule="evenodd" d="M7.72 71.04a.84.84 0 0 1-.37-.08.63.63 0 0 1-.26-.22.55.55 0 0 1-.09-.31c0-.12.03-.22.1-.32.06-.1.14-.16.25-.22a.84.84 0 0 1 .37-.08c.11 0 .22.02.3.06.1.03.18.08.24.14l-.16.14a.5.5 0 0 0-.36-.14c-.1 0-.18.02-.25.05a.42.42 0 0 0-.18.15.39.39 0 0 0-.06.22c0 .08.02.15.06.21.05.07.1.12.18.15.07.04.15.06.25.06a.5.5 0 0 0 .36-.14l.16.13a.62.62 0 0 1-.23.15c-.1.03-.2.05-.3.05Z" clip-rule="evenodd"/>
  <path fill="#0B1739" fill-rule="evenodd" d="M7.72 71.04a.84.84 0 0 1-.37-.08.63.63 0 0 1-.26-.22.55.55 0 0 1-.09-.31c0-.12.03-.22.1-.32.06-.1.14-.16.25-.22a.84.84 0 0 1 .37-.08c.11 0 .22.02.3.06.1.03.18.08.24.14l-.16.14a.5.5 0 0 0-.36-.14c-.1 0-.18.02-.25.05a.42.42 0 0 0-.18.15.39.39 0 0 0-.06.22c0 .08.02.15.06.21.05.07.1.12.18.15.07.04.15.06.25.06a.5.5 0 0 0 .36-.14l.16.13a.62.62 0 0 1-.23.15c-.1.03-.2.05-.3.05Z" clip-rule="evenodd"/>
  <path fill="red" fill-rule="evenodd" d="M17.43 64.9a.8.8 0 0 1 .36.08c.1.06.19.13.25.22.06.1.09.2.09.32 0 .11-.03.22-.1.31a.62.62 0 0 1-.24.22.8.8 0 0 1-.36.08.8.8 0 0 1-.33-.07.64.64 0 0 1-.25-.18.56.56 0 0 1-.11-.27h-.22v.5h-.24v-1.19h.24v.49h.22c.02-.1.06-.19.12-.26a.64.64 0 0 1 .24-.18c.1-.05.21-.07.33-.07Zm0 1.04c.08 0 .16-.02.23-.06a.4.4 0 0 0 .22-.36.4.4 0 0 0-.22-.37.49.49 0 0 0-.23-.05.48.48 0 0 0-.23.05.4.4 0 0 0-.22.37.4.4 0 0 0 .22.36c.07.04.15.06.23.06Z" clip-rule="evenodd"/>
  <path fill="#0B1739" fill-rule="evenodd" d="M17.43 64.9a.8.8 0 0 1 .36.08c.1.06.19.13.25.22.06.1.09.2.09.32 0 .11-.03.22-.1.31a.62.62 0 0 1-.24.22.8.8 0 0 1-.36.08.8.8 0 0 1-.33-.07.64.64 0 0 1-.25-.18.56.56 0 0 1-.11-.27h-.22v.5h-.24v-1.19h.24v.49h.22c.02-.1.06-.19.12-.26a.64.64 0 0 1 .24-.18c.1-.05.21-.07.33-.07Zm0 1.04c.08 0 .16-.02.23-.06a.4.4 0 0 0 .22-.36.4.4 0 0 0-.22-.37.49.49 0 0 0-.23-.05.48.48 0 0 0-.23.05.4.4 0 0 0-.22.37.4.4 0 0 0 .22.36c.07.04.15.06.23.06Z" clip-rule="evenodd"/>
  <path fill="#29313C" d="M60.31 65.81h.9V66l-.5 1.23h-.2l.5-1.23h-.7v-.18Zm1.13 1.2h.2l-.15.51h-.15l.1-.51Zm.98.23a.54.54 0 0 1-.2-.04.37.37 0 0 1-.16-.11.58.58 0 0 1-.1-.21 1.19 1.19 0 0 1-.03-.3v-.12c0-.12.02-.22.04-.3a.56.56 0 0 1 .1-.2c.04-.06.09-.1.15-.12a.5.5 0 0 1 .2-.04c.07 0 .14.01.2.03.06.03.1.07.15.12.04.05.07.12.1.2.02.09.03.19.03.3v.13c0 .11-.01.21-.04.3a.56.56 0 0 1-.1.2c-.04.06-.09.1-.15.12a.52.52 0 0 1-.2.04Zm0-.18a.3.3 0 0 0 .11-.03.21.21 0 0 0 .1-.08.45.45 0 0 0 .05-.14l.02-.23v-.12c0-.1 0-.17-.02-.23a.42.42 0 0 0-.06-.15.2.2 0 0 0-.09-.08.27.27 0 0 0-.11-.02.3.3 0 0 0-.12.02.2.2 0 0 0-.1.08.43.43 0 0 0-.05.15l-.02.23v.12c0 .09 0 .16.02.23.01.06.03.1.06.14.02.04.05.07.09.08.03.02.07.03.12.03Zm.68-1.04.29-.2h.19v1.4h-.19v-1.2l-.3.2v-.2Z"/>
  <path fill="red" d="M41.74 49.7v2.8h-.4v-2.46h-.63v-.35h1.03Zm1.54 0v2.8h-.4v-2.46h-.63v-.35h1.03Zm2.39 1.33a.8.8 0 0 1 .37.26c.08.12.13.26.13.42 0 .17-.05.31-.14.44a.87.87 0 0 1-.39.28c-.17.07-.37.1-.6.1a1.6 1.6 0 0 1-.58-.1.87.87 0 0 1-.39-.28.73.73 0 0 1-.14-.44c0-.16.05-.3.13-.42a.8.8 0 0 1 .37-.26.7.7 0 0 1-.3-.25.64.64 0 0 1-.1-.36c0-.15.05-.29.13-.4.09-.12.2-.2.36-.27.15-.06.33-.09.53-.09s.38.03.53.1c.16.05.28.14.36.26.08.11.13.25.13.4 0 .14-.04.26-.1.36a.7.7 0 0 1-.3.25Zm-.62-1.05a.73.73 0 0 0-.45.13.39.39 0 0 0-.17.33c0 .14.06.25.16.33.11.08.26.12.46.12s.35-.04.45-.12a.38.38 0 0 0 .17-.33.38.38 0 0 0-.17-.33.75.75 0 0 0-.45-.13Zm0 2.23a.9.9 0 0 0 .52-.14c.13-.09.2-.22.2-.37a.42.42 0 0 0-.2-.37.9.9 0 0 0-.52-.14c-.23 0-.4.05-.52.14a.42.42 0 0 0-.2.37c0 .15.07.28.2.37.12.1.3.14.52.14Zm1.85-.23c.07 0 .14.02.18.08.05.05.08.11.08.19 0 .04 0 .08-.02.12l-.05.17-.19.56h-.25l.15-.6a.27.27 0 0 1-.13-.1.28.28 0 0 1-.04-.15c0-.08.03-.15.08-.2a.26.26 0 0 1 .19-.07Zm1.52-2.29v2.81h-.4v-2.46h-.64v-.35h1.04Zm1.54 0v2.81h-.4v-2.46h-.64v-.35h1.04Z"/>
  <path fill="#0B1739" d="M41.74 49.7v2.8h-.4v-2.46h-.63v-.35h1.03Zm1.54 0v2.8h-.4v-2.46h-.63v-.35h1.03Zm2.39 1.33a.8.8 0 0 1 .37.26c.08.12.13.26.13.42 0 .17-.05.31-.14.44a.87.87 0 0 1-.39.28c-.17.07-.37.1-.6.1a1.6 1.6 0 0 1-.58-.1.87.87 0 0 1-.39-.28.73.73 0 0 1-.14-.44c0-.16.05-.3.13-.42a.8.8 0 0 1 .37-.26.7.7 0 0 1-.3-.25.64.64 0 0 1-.1-.36c0-.15.05-.29.13-.4.09-.12.2-.2.36-.27.15-.06.33-.09.53-.09s.38.03.53.1c.16.05.28.14.36.26.08.11.13.25.13.4 0 .14-.04.26-.1.36a.7.7 0 0 1-.3.25Zm-.62-1.05a.73.73 0 0 0-.45.13.39.39 0 0 0-.17.33c0 .14.06.25.16.33.11.08.26.12.46.12s.35-.04.45-.12a.38.38 0 0 0 .17-.33.38.38 0 0 0-.17-.33.75.75 0 0 0-.45-.13Zm0 2.23a.9.9 0 0 0 .52-.14c.13-.09.2-.22.2-.37a.42.42 0 0 0-.2-.37.9.9 0 0 0-.52-.14c-.23 0-.4.05-.52.14a.42.42 0 0 0-.2.37c0 .15.07.28.2.37.12.1.3.14.52.14Zm1.85-.23c.07 0 .14.02.18.08.05.05.08.11.08.19 0 .04 0 .08-.02.12l-.05.17-.19.56h-.25l.15-.6a.27.27 0 0 1-.13-.1.28.28 0 0 1-.04-.15c0-.08.03-.15.08-.2a.26.26 0 0 1 .19-.07Zm1.52-2.29v2.81h-.4v-2.46h-.64v-.35h1.04Zm1.54 0v2.81h-.4v-2.46h-.64v-.35h1.04Z"/>
  <path fill="red" d="M42.43 48.04c-.4 0-.7-.1-.92-.31a1.25 1.25 0 0 1-.33-.91h.63c0 .23.06.4.16.5.1.11.26.16.46.16s.36-.04.47-.14a.5.5 0 0 0 .15-.39.47.47 0 0 0-.15-.35c-.1-.1-.24-.14-.43-.14H42v-.53h.47c.16 0 .28-.05.37-.13.1-.08.14-.2.14-.33a.44.44 0 0 0-.14-.34c-.1-.08-.23-.13-.4-.13-.34 0-.53.19-.56.56h-.63c0-.35.11-.62.32-.82.2-.2.5-.3.86-.3.2 0 .37.02.51.08a1 1 0 0 1 .37.2c.1.08.17.19.23.31a1.03 1.03 0 0 1-.03.84.78.78 0 0 1-.33.32.87.87 0 0 1 .5.81c0 .15-.02.3-.07.43a.9.9 0 0 1-.25.33c-.1.09-.23.16-.39.2-.15.06-.33.08-.54.08Zm2.64-1.09h-.25V48h-.58v-2.51h.58v.95h.25l.6-.95h.68l-.8 1.18.9 1.33h-.7l-.68-1.05Z"/>
  <path fill="#0B1739" d="M42.43 48.04c-.4 0-.7-.1-.92-.31a1.25 1.25 0 0 1-.33-.91h.63c0 .23.06.4.16.5.1.11.26.16.46.16s.36-.04.47-.14a.5.5 0 0 0 .15-.39.47.47 0 0 0-.15-.35c-.1-.1-.24-.14-.43-.14H42v-.53h.47c.16 0 .28-.05.37-.13.1-.08.14-.2.14-.33a.44.44 0 0 0-.14-.34c-.1-.08-.23-.13-.4-.13-.34 0-.53.19-.56.56h-.63c0-.35.11-.62.32-.82.2-.2.5-.3.86-.3.2 0 .37.02.51.08a1 1 0 0 1 .37.2c.1.08.17.19.23.31a1.03 1.03 0 0 1-.03.84.78.78 0 0 1-.33.32.87.87 0 0 1 .5.81c0 .15-.02.3-.07.43a.9.9 0 0 1-.25.33c-.1.09-.23.16-.39.2-.15.06-.33.08-.54.08Zm2.64-1.09h-.25V48h-.58v-2.51h.58v.95h.25l.6-.95h.68l-.8 1.18.9 1.33h-.7l-.68-1.05Z"/>
  <path fill="#29313C" fill-rule="evenodd" d="M70.48 33.07h-11.8v2.25h11.8v-2.25Zm-11.66 2.12v-2h11.53v2H58.82Z" clip-rule="evenodd"/>
  <path fill="#29313C" d="M59.88 34.26v-.13h9.54v.13h-9.54Z"/>
  <path fill="#29313C" d="M60.28 33.6h.13v1.32h-.13V33.6ZM60.8 33.6h.14v1.32h-.13V33.6ZM61.47 33.6h.13v1.32h-.13V33.6ZM63.06 33.6h.13v1.32h-.13V33.6ZM63.99 33.6h.13v1.32h-.13V33.6ZM66.9 33.6h.14v1.32h-.14V33.6ZM64.52 33.6h.13v1.32h-.13V33.6ZM67.43 33.6h.14v1.32h-.14V33.6ZM65.18 33.6h.13v1.32h-.13V33.6ZM68.1 33.6h.13v1.32h-.13V33.6ZM68.76 33.6h.13v1.32h-.13V33.6ZM62.18 33.68l.13-.03.35 1.32-.13.03-.35-1.32ZM66.37 33.68l-.13-.03-.35 1.32.13.03.35-1.32Z"/>
  <path fill="#29313C" fill-rule="evenodd" d="M28.27 36.23v11.8h2.26v-11.8h-2.26Zm2.13.13V47.9h-2V36.36h2Z" clip-rule="evenodd"/>
  <path fill="#29313C" d="M29.47 46.84h-.13v-9.55h.13v9.55Z"/>
  <path fill="#29313C" d="M28.8 46.44v-.13h1.33v.13h-1.32ZM28.8 45.91v-.13h1.33v.13h-1.32ZM28.8 45.25v-.14h1.33v.14h-1.32ZM28.8 43.65v-.13h1.33v.13h-1.32ZM28.8 42.73v-.14h1.33v.14h-1.32ZM28.8 39.8v-.12h1.33v.13h-1.32ZM28.8 42.2v-.14h1.33v.14h-1.32ZM28.8 39.28v-.13h1.33v.13h-1.32ZM28.8 41.53v-.13h1.33v.13h-1.32ZM28.8 38.62v-.14h1.33v.14h-1.32ZM28.8 37.95v-.13h1.33v.13h-1.32ZM28.9 44.53l-.04-.13 1.32-.35.03.13-1.32.35ZM30.18 40.82l.03-.13-1.32-.35-.03.13 1.32.35Z"/>
  <path fill="#29313C" fill-rule="evenodd" d="M30.33 19.67v7.16h2.25v-7.16h-2.25Zm2.12 7.03h-2v-6.9h2v6.9Z" clip-rule="evenodd"/>
  <path fill="#29313C" d="M31.52 26.3h-.13v-5.83h.13v5.83Z"/>
  <path fill="#29313C" d="M30.86 25.9v-.13h1.32v.13h-1.32ZM30.86 25.37v-.13h1.32v.13h-1.32ZM30.86 24.71v-.13h1.32v.13h-1.32ZM30.86 23.12v-.13h1.32v.13h-1.32ZM30.86 22.2v-.14h1.32v.13h-1.32ZM30.86 21.66v-.13h1.32v.13h-1.32ZM30.86 21v-.14h1.32V21h-1.32ZM30.94 24l-.03-.13 1.32-.35.03.13-1.32.35Z"/>
  <path fill="#29313C" fill-rule="evenodd" d="M9.52 26.83h7.15v-2.25H9.52v2.25Zm7.02-2.12v1.99H9.65v-1.99h6.9Z" clip-rule="evenodd"/>
  <path fill="#29313C" d="M16.14 25.64v.13h-5.83v-.13h5.83Z"/>
  <path fill="#29313C" d="M15.75 26.3h-.14v-1.32h.14v1.32ZM15.22 26.3h-.14v-1.32h.14v1.32ZM14.55 26.3h-.13v-1.32h.13v1.32ZM12.96 26.3h-.13v-1.32h.13v1.32ZM12.04 26.3h-.14v-1.32h.14v1.32ZM11.5 26.3h-.13v-1.32h.14v1.32ZM10.84 26.3h-.13v-1.32h.13v1.32ZM13.84 26.22l-.13.03-.35-1.32.13-.03.35 1.32Z"/>
  <path fill="#29313C" fill-rule="evenodd" d="M62.93 12.77h7.68v-2.25h-7.68v2.25Zm7.55-2.12v2h-7.42v-2h7.42Z" clip-rule="evenodd"/>
  <path fill="#29313C" d="M69.55 11.58v.13h-5.83v-.13h5.83Z"/>
  <path fill="#29313C" d="M69.16 12.24h-.14v-1.32h.14v1.32ZM68.63 12.24h-.14v-1.32h.14v1.32ZM67.96 12.24h-.13v-1.32h.13v1.32ZM66.37 12.24h-.13v-1.32h.13v1.32ZM65.45 12.24h-.14v-1.32h.14v1.32ZM64.92 12.24h-.14v-1.32h.14v1.32ZM64.25 12.24h-.13v-1.32h.13v1.32ZM67.25 12.16l-.13.03-.35-1.32.13-.03.35 1.32Z"/>
  <path fill="#29313C" fill-rule="evenodd" d="M70.75 19.09v-6.45H68.5v6.45h2.25Zm-2.12-.13v-6.19h1.99v6.19h-1.99Z" clip-rule="evenodd"/>
  <path fill="#29313C" d="M69.56 13.52h.13v4.91h-.13v-4.9Z"/>
  <path fill="#29313C" d="M70.22 13.85V14h-1.33v-.14h1.33ZM70.22 14.3v.13h-1.33v-.13h1.33ZM70.22 14.85V15h-1.33v-.14h1.33ZM70.22 16.19v.13h-1.33v-.13h1.33ZM70.22 16.97v.13h-1.33v-.13h1.33ZM70.22 17.41v.13h-1.33v-.13h1.33ZM70.22 17.97v.13h-1.33v-.13h1.33ZM70.14 15.45l.03.13-1.33.3-.02-.13 1.32-.3Z"/>
  <path fill="#29313C" fill-rule="evenodd" d="M62.8 20.2h-3.58v1.86h3.58V20.2Zm-3.45 1.73v-1.6h3.31v1.6h-3.31ZM51.66 36.91h-9.8v1.73h9.8V36.9Zm-.13 1.6h-9.54v-1.46h9.54v1.45Z" clip-rule="evenodd"/>
  <path fill="#29313C" fill-rule="evenodd" d="M50.73 37.44h-8.08v.67h8.09v-.67Zm-.13.53h-7.82v-.4h7.82v.4ZM38.18 37.45 34.9 38.9l1.24 2.8 3.27-1.47-1.24-2.78Zm1.06 2.72-3.03 1.35-1.13-2.55 3.03-1.35 1.13 2.55Z" clip-rule="evenodd"/>
  <path fill="#29313C" fill-rule="evenodd" d="M38.18 37.45 34.9 38.9l1.24 2.8 3.27-1.47-1.24-2.78Zm1.06 2.72-3.03 1.35-1.13-2.55 3.03-1.35 1.13 2.55Z" clip-rule="evenodd"/>
  <path fill="#29313C" fill-rule="evenodd" d="m38.78 37.18-4.48 2 1.24 2.78 4.48-2-1.24-2.78Zm1.07 2.72-4.24 1.89-1.13-2.55 4.23-1.89 1.14 2.55Z" clip-rule="evenodd"/>
  <path fill="#29313C" fill-rule="evenodd" d="M38.18 37.45 34.9 38.9l.43.97 3.27-1.45-.43-.97Zm.25.9L35.4 39.7l-.32-.73 3.03-1.35.32.73ZM42.52 58.13h3.58v-3.05h-3.58v3.05Zm3.44-2.91V58h-3.3v-2.78h3.3Z" clip-rule="evenodd"/>
  <path fill="#29313C" fill-rule="evenodd" d="M42.52 58.13h3.58v-3.05h-3.58v3.05Zm3.44-2.91V58h-3.3v-2.78h3.3Z" clip-rule="evenodd"/>
  <path fill="#29313C" fill-rule="evenodd" d="M41.86 58.13h4.9v-3.05h-4.9v3.05Zm4.77-2.91V58h-4.64v-2.78h4.64Z" clip-rule="evenodd"/>
  <path fill="#29313C" fill-rule="evenodd" d="M42.52 58.13h3.58v-1.06h-3.58v1.06Zm3.44-.93v.8h-3.3v-.8h3.3ZM33.24 51.5v3.58h3.05V51.5h-3.05Zm2.92 3.45h-2.79v-3.32h2.79v3.32Z" clip-rule="evenodd"/>
  <path fill="#29313C" fill-rule="evenodd" d="M33.24 48.05v3.58h3.05v-3.58h-3.05Zm2.92 3.45h-2.79V48.2h2.79v3.31Z" clip-rule="evenodd"/>
  <path fill="#29313C" fill-rule="evenodd" d="M33.24 44.6v3.59h3.05V44.6h-3.05Zm2.92 3.45h-2.79v-3.31h2.79v3.31Z" clip-rule="evenodd"/>
  <path fill="#29313C" fill-rule="evenodd" d="M33.24 44.6v10.48h3.05V44.61h-3.05Zm2.92 10.35h-2.79V44.74h2.79v10.21Z" clip-rule="evenodd"/>
  <path fill="#29313C" fill-rule="evenodd" d="M33.24 43.94v11.8h3.05v-11.8h-3.05Zm2.92 11.67h-2.79V44.07h2.79v11.54Z" clip-rule="evenodd"/>
  <path fill="#29313C" fill-rule="evenodd" d="M33.24 51.5v3.58h1.06V51.5h-1.06Zm.93 3.45h-.8v-3.32h.8v3.32Z" clip-rule="evenodd"/>
  <path fill="#29313C" fill-rule="evenodd" d="M33.24 48.05v3.58h1.06v-3.58h-1.06Zm.93 3.45h-.8V48.2h.8v3.31Z" clip-rule="evenodd"/>
  <path fill="#29313C" fill-rule="evenodd" d="M33.24 44.6v3.59h1.06V44.6h-1.06Zm.93 3.45h-.8v-3.31h.8v3.31ZM55.7 52.1a3.05 3.05 0 1 0 6.1 0 3.05 3.05 0 0 0-6.1 0Zm5.97 0a2.92 2.92 0 1 1-5.83 0 2.92 2.92 0 0 1 5.83 0ZM63.1 48.39l-1.53-1.48-1.3 1.34 1.53 1.47 1.3-1.33Zm-1.3 1.15-1.34-1.3 1.1-1.14 1.34 1.3-1.1 1.14ZM63.26 55.13l-1.52 1.47-1.2-1.24 1.43-1.38.1-.1 1.2 1.25Zm-1.29-1.15h.19l-.1.1-.09-.1Zm-1.24 1.39 1.33-1.3 1.02 1.06-1.34 1.29-1.01-1.05ZM63.99 52.96v-2.12h-1.73v2.12H64Zm-1.6-1.99h1.47v1.86H62.4v-1.86ZM53.12 53.52l.93 1.9 1.68-.82-.93-1.9-1.68.82Zm1.62-.65.81 1.67-1.44.7-.81-1.66 1.44-.7ZM33.5 15.82v2.13h1.88v-2.13H33.5Zm1.74.14v1.85h-1.6v-1.85h1.6ZM33.5 12.11v2.12h1.88v-2.12H33.5Zm1.74.13v1.86h-1.6v-1.86h1.6ZM57 57.18l2.1.3.22-1.58-2.1-.3-.22 1.58Zm2.17-1.17-.19 1.32-1.83-.26.18-1.31 1.84.25ZM12.7 57.07H9.52v2.26h3.18v-2.26ZM9.65 59.2V57.2h2.92v2H9.65ZM48.48 15.7v5.96h2.25V15.7h-2.25Zm2.12 5.83h-1.99v-5.7h2v5.7ZM12.7 10.52H9.52v2.25h3.18v-2.25Zm-3.05 2.12v-1.99h2.92v2H9.65ZM30.59 57.07h-6.9v2.26h6.9v-2.26Zm-6.76 2.12V57.2h6.63v2h-6.63ZM29.66 10.52H23.7v2.25h5.96v-2.25Zm-5.83 2.12v-1.99h5.7v2h-5.7ZM22.24 48.98H14.3v10.35h7.95V48.98ZM14.42 59.2V49.11h7.69V59.2h-7.69Z" clip-rule="evenodd"/>
  <path fill="#29313C" fill-rule="evenodd" d="M17.87 56.94h-3.05v1.99h3.05v-1.99Zm-.14 1.86h-2.78v-1.73h2.79v1.73ZM21.58 56.94h-3.05v1.99h3.05v-1.99Zm-2.92 1.86v-1.73h2.79v1.73h-2.79ZM22.24 48.98H14.3v7.3h7.95v-7.3Zm-7.82 7.16v-7.03h7.69v7.03h-7.69Z" clip-rule="evenodd"/>
  <path fill="#29313C" fill-rule="evenodd" d="M22.24 48.98H14.3v5.97h7.95v-5.97Zm-7.82 5.84v-5.7h7.69v5.7h-7.69ZM22.24 20.86H14.3V10.52h7.95v10.34Zm-7.82-10.2v10.07h7.69V10.65h-7.69Z" clip-rule="evenodd"/>
  <path fill="#29313C" fill-rule="evenodd" d="M17.87 12.9h-3.05v-1.98h3.05v1.99Zm-2.92-1.85v1.72h2.79v-1.72h-2.79ZM21.58 12.9h-3.05v-1.98h3.05v1.99Zm-2.92-1.85v1.72h2.79v-1.72h-2.79ZM22.24 20.86H14.3v-7.29h7.95v7.3Zm-7.82-7.16v7.03h7.69V13.7h-7.69Z" clip-rule="evenodd"/>
  <path fill="#29313C" fill-rule="evenodd" d="M22.24 20.86H14.3V14.9h7.95v5.96Zm-7.82-5.83v5.7h7.69v-5.7h-7.69ZM40.4 26.83V22.6h10.33v4.24H40.4Zm10.2-4.1H40.53v3.97H50.6v-3.98Z" clip-rule="evenodd"/>
  <path fill="#29313C" fill-rule="evenodd" d="M48.35 26.17v-3.05h1.99v3.05h-2Zm1.85-2.92h-1.72v2.79h1.72v-2.79ZM40.4 26.83V22.6h7.29v4.24h-7.3Zm7.15-4.1h-7.02v3.97h7.02v-3.98Z" clip-rule="evenodd"/>
  <path fill="#29313C" fill-rule="evenodd" d="M40.4 26.83V22.6h5.96v4.24H40.4Zm5.83-4.1h-5.7v3.97h5.7v-3.98ZM40.4 14.76v-4.24h10.33v4.24H40.4Zm10.2-4.1H40.53v3.97H50.6v-3.98Z" clip-rule="evenodd"/>
  <path fill="#29313C" fill-rule="evenodd" d="M48.35 14.1v-3.05h1.99v3.05h-2Zm1.85-2.92h-1.72v2.79h1.72v-2.79ZM40.4 14.76v-4.24h7.29v4.24h-7.3Zm7.15-4.1h-7.02v3.97h7.02v-3.98Z" clip-rule="evenodd"/>
  <path fill="#29313C" fill-rule="evenodd" d="M40.4 14.76v-4.24h5.96v4.24H40.4Zm5.83-4.1h-5.7v3.97h5.7v-3.98ZM33.64 10.52h-3.31v8.62h3.3v-8.62Zm-3.18 8.49v-8.36h3.05v8.36h-3.05ZM14.88 42.48h-2.12v1.87h2.12v-1.88Zm-.13 1.73H12.9v-1.6h1.85v1.6Z" clip-rule="evenodd"/>
  <path fill="#29313C" fill-rule="evenodd" d="M18.07 42.61V39.3H9.46v3.31h8.61Zm-8.48-.13v-3.05h8.35v3.05H9.59ZM71.01 36.38H58.7v3.19H71v-3.19Zm-12.2 3.05v-2.92h12.07v2.92H58.82Z" clip-rule="evenodd"/>
</svg>
